<svg  viewBox="0 0 245 245" fill="none" xmlns="http://www.w3.org/2000/svg">
<path d="M122.2 0C54.7 0 0 54.7 0 122.2C0 189.7 54.7 244.4 122.2 244.4C189.7 244.4 244.4 189.7 244.4 122.2C244.4 54.7 189.7 0 122.2 0ZM129.5 21.4C142.6 22.3 155 25.8 166.3 31.2C156.3 55.7 143.8 78.1 128.3 99.4C125.5 73.3 125.9 47.7 129.5 21.4ZM116.1 99.4C100.6 78.2 88.1 55.7 78.1 31.2C89.4 25.7 101.8 22.3 114.9 21.4C118.5 47.7 118.9 73.3 116.1 99.4ZM99.4 128.3C78.2 143.8 55.7 156.3 31.2 166.3C25.7 155 22.3 142.6 21.4 129.5C47.6 125.9 73.3 125.5 99.4 128.3ZM21.4 114.9C22.3 101.8 25.8 89.4 31.2 78.1C55.7 88.1 78.1 100.6 99.4 116.1C73.3 118.9 47.6 118.5 21.4 114.9ZM114.9 223C101.8 222.1 89.4 218.6 78.1 213.2C88.1 188.7 100.6 166.3 116.1 145C118.9 171.1 118.5 196.8 114.9 223ZM128.3 145C143.8 166.2 156.3 188.7 166.3 213.2C155 218.7 142.6 222.1 129.5 223C125.9 196.8 125.5 171.1 128.3 145ZM223 129.5C222.1 142.6 218.6 155 213.2 166.3C188.7 156.3 166.3 143.8 145 128.3C171.1 125.5 196.8 125.9 223 129.5ZM145 116.1C166.2 100.6 188.7 88.1 213.2 78.1C218.7 89.4 222.1 101.8 223 114.9C196.8 118.5 171.1 118.9 145 116.1ZM205.8 65.5C184.9 81.7 162.9 94.9 138.8 105.5C149.4 81.5 162.6 59.5 178.8 38.5C189.5 45.8 198.7 54.9 205.8 65.5ZM65.5 38.6C81.7 59.5 94.9 81.5 105.5 105.6C81.5 95 59.5 81.8 38.5 65.6C45.8 54.9 54.9 45.8 65.5 38.6ZM38.6 179C59.5 162.8 81.5 149.6 105.6 139C95 163 81.8 185 65.6 206C54.9 198.7 45.8 189.5 38.6 179ZM178.9 205.9C162.7 185 149.5 163 138.9 138.9C162.9 149.5 184.9 162.7 205.9 178.9C198.7 189.5 189.5 198.7 178.9 205.9Z" fill="url(#paint0_linear)"/>
<defs>
<linearGradient id="paint0_linear" x1="-62.0541" y1="-122.2" x2="241.278" y2="305.731" gradientUnits="userSpaceOnUse">
<stop stop-color="#F27A54"/>
<stop offset="1" stop-color="#8542CB"/>
</linearGradient>
</defs>
</svg>
